<?xml version="1.0" encoding="UTF-8"?>
<svg width="32px" height="32px" viewBox="0 0 32 32" version="1.1" xmlns="http://www.w3.org/2000/svg" xmlns:xlink="http://www.w3.org/1999/xlink">
    <title>Samsclub logo</title>
    <g id="Samsclub-logo" stroke="none" stroke-width="1" fill="none" fill-rule="evenodd">
        <g id="Sams-club-logo" transform="translate(4.000000, 4.000000)">
            <rect id="Rectangle" x="0" y="0" width="24" height="24"></rect>
            <path d="M11.3823948,5.32135922 L10.0939159,4.03326861 L2.34122977,11.7882848 C1.96446602,12.1651133 1.96453074,12.7760518 2.34148867,13.1528155 L10.0964401,20.9055016 L11.3832362,19.6183819 C11.7764401,19.2251133 11.7763107,18.5874434 11.3830421,18.1943042 L5.65708738,12.4700324 L11.382589,6.74291262 C11.7751456,6.35029126 11.7750162,5.71385113 11.3823948,5.32135922" id="Fill-12" fill="#FFFFFE"></path>
            <path d="M21.6836893,11.824466 L13.889644,4.03268608 L12.5955987,5.32711974 C12.2064078,5.71644013 12.2065372,6.34750809 12.5957929,6.73669903 L18.328932,12.4681553 L12.5464725,18.2523625 C12.1853722,18.6134628 12.1855016,19.198835 12.5466019,19.5598058 L13.8921683,20.9049838 L21.6838835,13.1108738 C22.0391586,12.7555987 22.0390291,12.1796764 21.6836893,11.824466" id="Fill-14" fill="#FFFFFE"></path>
        </g>
    </g>
</svg>